<?xml version="1.0" standalone="no"?>
<!DOCTYPE svg PUBLIC "-//W3C//DTD SVG 20010904//EN"
 "http://www.w3.org/TR/2001/REC-SVG-20010904/DTD/svg10.dtd">
<svg version="1.0" xmlns="http://www.w3.org/2000/svg"
 width="1104.000000pt" height="719.000000pt" viewBox="0 0 1104.000000 719.000000"
 preserveAspectRatio="xMidYMid meet">
<metadata>
Created by potrace 1.16, written by Peter Selinger 2001-2019
</metadata>
<g transform="translate(0.000000,719.000000) scale(0.100000,-0.100000)"
fill="#000000" stroke="none">
<path d="M6170 7184 c-276 -9 -573 -35 -675 -60 -542 -134 -1055 -503 -1386
-998 -82 -121 -144 -237 -225 -418 -242 -544 -395 -1245 -355 -1630 12 -117
47 -271 86 -374 63 -168 229 -381 381 -489 88 -63 258 -146 374 -183 86 -27
112 -30 280 -36 102 -3 734 -8 1405 -11 671 -3 1272 -9 1335 -15 63 -5 225
-12 360 -16 136 -3 261 -11 280 -18 25 -8 41 -23 59 -56 39 -69 34 -138 -26
-375 -129 -509 -221 -767 -314 -885 -49 -62 -132 -125 -201 -152 -69 -27 -218
-33 -1173 -48 -759 -12 -4364 -5 -4376 8 -4 4 13 77 37 162 24 85 66 236 94
335 27 99 74 266 104 370 30 105 74 262 99 350 25 88 102 358 172 600 70 242
140 485 155 540 15 55 62 219 105 365 42 146 101 348 130 450 29 102 79 273
110 380 179 616 249 859 295 1020 21 74 64 223 95 330 31 107 80 278 110 380
71 246 124 431 131 453 5 16 -36 17 -797 15 l-802 -3 -33 -115 c-17 -63 -62
-218 -99 -345 -37 -126 -93 -320 -125 -430 -32 -110 -79 -272 -105 -360 -26
-88 -71 -245 -102 -350 -84 -291 -145 -501 -208 -715 -31 -107 -78 -269 -105
-360 -26 -91 -73 -253 -105 -360 -31 -107 -81 -278 -110 -380 -50 -171 -99
-338 -220 -755 -109 -375 -179 -616 -205 -710 -16 -55 -58 -203 -95 -330 -63
-218 -124 -432 -194 -680 -17 -60 -49 -171 -70 -245 -22 -74 -74 -259 -116
-410 -43 -151 -92 -325 -110 -387 -24 -82 -30 -115 -21 -122 6 -5 55 -29 108
-54 l96 -45 124 -2 c640 -10 2830 -14 4748 -7 l2345 8 140 30 c350 77 679 214
942 396 390 268 677 623 871 1073 99 230 310 918 366 1193 26 127 46 324 46
457 0 536 -197 872 -635 1086 -161 78 -363 126 -645 155 -127 13 -1246 27
-2160 28 -632 1 -992 11 -1071 32 -108 27 -120 155 -40 429 22 74 54 191 72
260 55 216 125 384 203 490 36 50 122 102 210 127 81 24 659 31 2521 32 l1671
1 89 98 c48 53 222 241 385 417 280 301 450 491 583 648 67 80 72 110 28 159
-28 32 -31 32 -142 40 -108 8 -4475 19 -4699 12z m1013 -104 c-4 -15 0 -20 14
-20 11 0 32 9 46 20 23 18 40 20 197 20 l173 0 -6 -49 c-3 -28 -13 -64 -22
-81 l-16 -31 -26 21 c-30 24 -75 26 -93 5 -8 -10 -10 -29 -6 -56 8 -49 -7
-110 -32 -133 -18 -15 -22 -14 -76 21 l-57 38 35 6 c37 6 66 24 66 42 0 21
-34 47 -61 47 -16 0 -43 -14 -69 -35 -114 -95 -216 25 -115 136 20 22 35 42
33 44 -2 2 -194 -5 -428 -16 -234 -10 -428 -19 -431 -19 -3 0 -78 -78 -165
-172 -87 -95 -386 -418 -663 -718 -650 -703 -930 -1007 -968 -1050 -34 -38
-23 -41 -113 28 -24 17 -50 32 -58 32 -31 0 -437 -432 -520 -552 -49 -71 -47
-72 73 -64 58 4 105 4 105 1 0 -4 -25 -36 -55 -71 -30 -36 -55 -71 -55 -78 0
-30 94 -127 260 -269 l44 -37 -49 0 c-44 0 -52 -4 -89 -43 -23 -24 -58 -55
-78 -70 -26 -19 -41 -40 -48 -68 -12 -45 -73 -119 -98 -119 -24 0 -82 -61 -82
-86 0 -12 -6 -27 -14 -33 -12 -10 -18 -3 -34 41 -73 199 -92 306 -92 519 0
165 7 242 41 426 l21 112 38 -20 c45 -24 78 -22 94 4 9 15 7 22 -12 38 -13 10
-42 24 -63 30 -21 7 -39 17 -39 22 0 32 46 197 62 225 11 18 17 39 14 47 -12
32 120 399 231 640 60 130 152 295 188 335 12 14 36 48 53 75 38 60 75 100
120 126 21 12 32 26 32 42 0 15 32 53 103 123 148 145 251 226 413 326 78 48
285 158 298 158 2 0 6 -9 9 -20 8 -30 23 -25 75 24 64 59 188 100 369 121 73
9 150 16 170 16 21 0 85 3 143 8 58 4 355 8 662 9 552 2 556 2 551 -18z m577
14 c0 -5 -118 -137 -251 -279 -36 -38 -87 -96 -114 -128 -26 -32 -50 -56 -52
-53 -3 2 -2 29 2 59 7 54 8 55 31 45 20 -10 28 -8 49 12 37 35 59 100 51 155
-7 42 -6 45 15 45 13 0 33 -10 45 -21 13 -12 30 -19 38 -16 27 11 54 67 61
128 l7 59 59 0 c32 0 59 -3 59 -6z m230 -41 c0 -27 -4 -54 -9 -62 -5 -8 -36
-16 -77 -20 -38 -4 -74 -10 -80 -13 -6 -4 -14 -31 -17 -59 -8 -66 -35 -96 -94
-105 -37 -5 -49 -13 -65 -40 -11 -18 -27 -36 -37 -39 -10 -3 -59 -45 -109 -93
-86 -81 -92 -90 -92 -126 0 -51 29 -95 94 -145 30 -22 57 -50 61 -61 9 -29 -8
-53 -169 -239 l-140 -161 -493 0 -494 0 287 308 c158 169 300 327 316 351 32
52 36 103 11 155 l-16 35 68 76 c68 75 69 76 81 53 11 -21 215 -201 250 -221
21 -12 28 16 15 54 -16 46 -14 50 14 37 24 -11 25 -14 19 -73 -10 -96 27 -99
96 -8 19 26 73 88 120 138 47 51 128 140 180 198 l95 105 93 1 92 1 0 -47z
m547 29 c-32 -35 -17 -70 24 -57 17 6 20 13 17 41 l-4 34 59 0 59 0 -27 -32
c-15 -18 -116 -130 -225 -248 -108 -118 -340 -372 -515 -565 -175 -192 -324
-353 -331 -358 -7 -4 -77 -6 -155 -5 l-143 3 90 100 c110 123 164 188 197 239
24 35 25 40 12 65 -7 15 -40 49 -72 75 -73 60 -95 97 -81 137 12 34 152 168
190 181 16 6 31 21 37 38 7 23 18 30 48 36 49 9 90 30 102 52 5 10 13 42 17
70 l7 52 41 0 c58 0 114 18 126 40 5 10 10 41 10 69 l0 51 267 0 c257 0 266
-1 250 -18z m2187 9 c152 -4 221 -10 223 -18 6 -18 -177 -225 -698 -788 -163
-176 -310 -337 -328 -357 l-33 -38 -489 0 c-269 0 -489 3 -489 6 0 22 599 696
908 1021 l174 183 256 -1 c141 -1 356 -4 476 -8z m-7221 -88 c-14 -49 -30 -95
-36 -103 -7 -8 -38 -46 -69 -84 -32 -38 -63 -84 -70 -103 -10 -28 -25 -40 -84
-68 -89 -43 -177 -123 -172 -156 2 -19 11 -25 47 -31 30 -5 56 -18 79 -40 42
-40 92 -116 92 -139 0 -10 -16 -71 -36 -136 -33 -110 -40 -123 -96 -186 l-61
-69 2 -133 2 -133 -207 -223 c-357 -385 -448 -479 -467 -479 -10 0 -55 -33
-100 -74 l-80 -75 -25 20 c-16 12 -40 19 -68 19 -24 0 -44 2 -44 5 0 3 45 59
101 123 159 184 201 255 191 322 -4 27 -129 153 -201 203 -36 24 -48 28 -70
21 -14 -5 -75 -68 -138 -144 -62 -74 -151 -173 -196 -220 -46 -47 -133 -141
-194 -210 -135 -152 -198 -213 -190 -185 55 191 128 436 136 457 6 15 106 131
222 259 l212 231 -6 80 c-4 48 -13 91 -23 106 -13 19 -14 30 -5 49 14 29 14
302 1 393 -6 46 -15 70 -30 82 l-21 17 21 73 c12 40 30 101 41 135 l20 62 48
-6 c77 -9 113 9 204 103 45 47 85 91 89 99 9 14 -40 67 -85 92 -35 20 -91 15
-128 -10 -60 -41 -62 -41 -56 -21 3 11 16 52 27 92 l22 72 713 0 713 0 -25
-87z m-528 -1825 c-73 -262 -109 -374 -123 -385 -26 -21 -52 -15 -63 15 -6 15
-28 50 -49 78 l-39 52 145 161 c81 89 147 161 149 161 2 0 -7 -37 -20 -82z
m1426 -85 c26 -21 48 -42 48 -48 0 -5 -92 -111 -205 -235 l-206 -225 -96 -7
c-54 -3 -99 -5 -100 -3 -8 8 62 97 169 215 111 123 326 340 336 340 3 0 27
-17 54 -37z m732 -298 c-9 -35 -17 -102 -17 -160 -1 -89 2 -105 24 -145 28
-49 74 -85 129 -99 71 -19 385 -33 844 -40 l467 -6 -227 -245 c-385 -416 -753
-810 -863 -924 l-105 -108 -340 4 -340 4 -39 26 c-41 28 -58 27 -86 -6 -20
-25 -81 -19 -197 20 -139 47 -282 121 -377 197 -42 33 -76 62 -76 66 1 3 19
19 42 34 l41 29 -6 76 c-5 53 -3 70 3 54 5 -12 16 -25 24 -28 38 -15 131 72
142 134 5 25 15 37 45 53 72 36 280 267 295 326 4 16 27 33 78 57 83 41 176
122 176 154 0 24 -1 24 -64 38 -22 5 -41 14 -43 21 -4 11 476 538 483 531 2
-2 -4 -31 -13 -63z m-2381 -392 c-102 -347 -568 -1976 -667 -2328 -37 -132
-91 -325 -120 -430 -30 -104 -59 -209 -65 -233 -6 -24 -14 -50 -17 -58 -4 -12
63 -14 483 -15 269 -1 555 -4 636 -8 l147 -6 -216 -235 c-350 -381 -500 -536
-550 -569 -25 -17 -50 -31 -55 -31 -16 0 -7 55 12 80 11 14 20 29 20 34 0 6
-21 54 -46 109 -54 114 -64 169 -40 215 37 72 6 70 -75 -5 -59 -55 -704 -749
-749 -806 l-21 -27 -187 1 c-103 1 -227 4 -276 8 l-88 6 84 105 c111 138 280
361 407 537 72 101 101 148 97 161 -9 26 -172 185 -290 282 -136 112 -142 116
-164 99 -85 -66 -498 -432 -676 -598 -60 -56 -110 -100 -112 -98 -2 1 24 97
57 211 32 115 59 215 59 222 0 8 12 16 28 19 61 13 78 22 97 55 11 18 38 49
60 69 96 85 301 301 337 355 42 65 48 107 23 156 -19 37 -57 48 -99 28 -17 -9
-101 -90 -186 -181 -85 -91 -156 -164 -158 -162 -2 1 13 56 32 121 42 141 89
308 153 534 25 91 48 167 50 169 1 2 14 -1 27 -9 14 -7 31 -10 39 -7 24 9 667
707 831 901 74 87 116 154 116 182 0 12 -12 36 -26 53 l-26 31 32 37 c68 76
132 123 170 123 46 0 98 36 130 90 38 65 214 276 440 530 42 47 132 148 200
225 161 182 180 190 142 58z m4973 -63 c3 -6 -8 -18 -26 -28 -65 -35 -115 -79
-150 -133 -42 -63 -147 -164 -195 -186 -42 -21 -66 -11 -62 24 2 21 14 33 50
51 83 43 207 184 232 265 4 14 17 17 75 17 38 0 73 -5 76 -10z m600 -5 c218
-7 500 -41 543 -64 8 -5 -11 -35 -64 -97 -97 -112 -154 -187 -154 -202 0 -19
104 -118 290 -277 96 -83 216 -190 267 -238 51 -49 96 -87 101 -85 5 1 76 79
158 171 128 145 150 166 160 152 10 -14 36 -100 59 -196 6 -22 -9 -42 -111
-155 -65 -71 -330 -361 -589 -644 -671 -734 -665 -728 -665 -742 0 -7 28 -40
62 -75 l61 -62 -93 -103 c-484 -533 -770 -838 -785 -838 -20 0 -145 144 -145
167 0 23 91 134 239 288 149 157 290 324 298 353 3 15 -1 37 -11 56 -16 30
-16 33 29 156 44 119 99 313 181 630 61 237 51 361 -34 442 -64 61 3 55 -990
86 l-222 7 212 230 c117 127 372 406 567 620 194 215 364 400 378 412 19 18
32 22 66 18 23 -2 110 -7 192 -10z m505 -2194 c0 -5 -4 -11 -9 -13 -5 -1 -28
-27 -50 -56 -23 -29 -64 -69 -92 -89 -36 -25 -57 -51 -76 -91 -30 -63 -197
-240 -271 -286 -31 -19 -49 -41 -66 -79 -28 -63 -182 -229 -262 -282 -31 -21
-59 -48 -65 -63 -5 -15 -15 -38 -22 -51 -20 -39 -194 -217 -242 -248 -32 -20
-52 -43 -69 -79 -29 -61 -177 -220 -263 -283 -44 -32 -70 -62 -103 -117 -79
-134 -241 -287 -285 -270 -8 3 -15 12 -15 20 0 26 -34 37 -59 19 -18 -12 -22
-22 -17 -44 4 -24 2 -29 -13 -29 -10 0 -21 7 -25 15 -7 19 -47 19 -110 0 -53
-16 -366 -22 -366 -7 0 28 77 110 165 177 84 63 137 124 201 230 31 52 62 88
92 109 83 57 122 94 218 205 53 61 99 111 103 111 14 0 59 -57 100 -126 40
-69 51 -116 30 -129 -19 -12 -29 -54 -19 -80 27 -70 110 -6 396 302 313 337
759 827 947 1038 88 99 167 186 175 193 18 14 72 16 72 3z m-141 -549 c232
-220 292 -272 311 -272 9 0 39 24 66 53 215 232 287 307 291 304 7 -8 -44
-131 -104 -253 -104 -208 -224 -387 -365 -545 -67 -75 -244 -235 -344 -311
-137 -105 -360 -231 -503 -285 l-65 -24 45 48 c111 120 509 562 624 693 163
187 225 269 225 300 0 17 -19 43 -64 85 -58 56 -150 125 -166 125 -13 0 -257
-257 -644 -680 -215 -234 -455 -494 -534 -577 l-144 -153 -73 0 c-41 0 -76 3
-78 8 -3 4 63 81 145 172 82 91 199 221 259 289 121 136 129 156 83 210 l-26
31 29 26 c15 14 54 47 86 74 81 68 183 186 209 242 15 33 35 55 68 77 73 47
239 225 265 285 17 38 35 59 71 83 27 17 74 57 104 87 30 31 58 56 63 56 5 0
80 -67 166 -148z m-1676 -266 c-10 -13 -265 -294 -567 -625 l-550 -601 -300 0
c-166 0 -358 -3 -428 -7 -95 -4 -128 -3 -128 6 0 6 78 96 173 199 336 365 474
525 495 573 11 27 10 32 -14 54 -15 14 -30 25 -35 25 -8 0 -25 44 -18 46 2 1
-24 31 -58 68 -38 40 -63 75 -63 89 0 12 27 57 61 100 l60 77 362 1 c311 2
868 11 990 17 l39 2 -19 -24z m-3383 -5 c0 -5 -16 -22 -36 -38 -62 -49 -108
-97 -126 -130 -9 -18 -41 -48 -71 -67 -60 -39 -78 -71 -76 -140 2 -89 29 -122
53 -64 18 41 130 172 285 331 l114 117 85 0 84 0 107 -102 c119 -113 254 -229
290 -248 22 -11 30 -6 154 116 133 132 149 127 29 -9 -36 -40 -216 -247 -402
-462 -185 -214 -368 -423 -405 -462 l-67 -73 -709 0 -709 0 0 21 c0 12 26 49
60 86 33 35 69 80 79 101 11 20 35 49 55 64 36 29 338 347 695 736 l214 232
149 0 c81 0 148 -4 148 -9z m1823 -19 c-17 -15 -43 -46 -57 -69 -17 -29 -35
-44 -54 -48 -77 -16 -112 -30 -160 -67 -30 -22 -56 -37 -59 -35 -7 7 29 58
112 160 l70 86 90 0 90 0 -32 -27z m2032 -22 c18 -29 -57 -106 -124 -129 -41
-13 -108 -15 -115 -2 -9 14 50 59 92 71 20 5 57 23 82 40 49 33 56 35 65 20z
m-5279 -914 c13 -33 -29 -79 -129 -140 -15 -9 -31 -25 -34 -34 -9 -25 -44 -62
-60 -62 -18 0 -17 54 2 70 8 6 26 31 39 55 14 24 41 53 59 64 18 11 42 29 52
41 21 23 63 27 71 6z"/>
<path d="M4998 6703 c-103 -106 -133 -146 -123 -163 12 -19 26 -10 92 53 72
68 153 171 153 193 0 31 -30 10 -122 -83z"/>
<path d="M4634 6302 c-28 -22 -63 -54 -78 -73 -26 -30 -28 -38 -23 -91 l5 -58
-50 0 c-68 0 -98 -20 -194 -130 -109 -126 -111 -130 -90 -208 10 -37 14 -77
10 -96 -3 -19 -1 -36 4 -40 12 -7 105 65 128 99 13 20 14 28 4 40 -7 8 -21 15
-31 15 -33 0 -22 45 29 111 26 35 62 72 81 83 31 18 36 18 81 4 30 -10 53 -12
63 -6 19 10 182 208 208 253 16 26 17 34 6 43 -10 8 -22 3 -52 -24 -41 -36
-52 -38 -69 -11 -8 12 -5 28 12 63 32 65 16 74 -44 26z m-1 -66 c-7 -34 13
-64 46 -73 l29 -8 -71 -88 c-77 -97 -64 -91 -158 -71 -39 9 -82 -19 -140 -88
-55 -67 -69 -94 -69 -138 0 -23 5 -31 25 -36 31 -8 31 -15 3 -41 -43 -38 -45
-36 -63 42 l-18 74 40 53 c23 29 71 83 108 121 l67 67 63 0 c73 0 80 9 65 74
-10 47 -6 62 33 104 37 38 46 40 40 8z"/>
<path d="M3935 5390 c-46 -10 -73 -28 -89 -59 -16 -30 -36 -134 -36 -186 0
-29 2 -27 81 50 44 44 89 95 100 112 37 59 11 98 -56 83z"/>
<path d="M7044 470 c-27 -22 -52 -40 -56 -40 -4 0 -18 -19 -32 -43 -14 -24
-37 -53 -51 -65 -16 -14 -24 -30 -21 -40 2 -9 7 -29 10 -44 4 -19 13 -28 25
-28 26 0 77 45 85 73 3 15 24 34 55 50 89 49 145 135 106 164 -33 23 -70 15
-121 -27z"/>
</g>
</svg>
